<svg width="74" height="75" viewBox="0 0 74 75" fill="none" xmlns="http://www.w3.org/2000/svg">
<path d="M48.6727 36.544L39.176 46.043V21.6479C39.176 20.3759 38.1436 19.3435 36.8715 19.3435C35.5995 19.3435 34.5671 20.3759 34.5671 21.6479V46.043L25.0704 36.5463C24.1693 35.6453 22.7106 35.6453 21.8118 36.5463C20.9107 37.4474 20.9107 38.9061 21.8118 39.8048L34.8482 52.8411C35.4012 53.3942 36.1571 53.5647 36.8739 53.438C37.5884 53.5647 38.3465 53.3919 38.8996 52.8411L51.936 39.8048C52.837 38.9037 52.837 37.4451 51.936 36.5463C51.0325 35.6453 49.5738 35.6453 48.6727 36.544ZM36.8715 0.907715C16.5093 0.907715 0 17.4146 0 37.7792C0 58.1439 16.5093 74.6508 36.8715 74.6508C57.2338 74.6508 73.7431 58.1415 73.7431 37.7792C73.7431 17.417 57.2362 0.907715 36.8715 0.907715ZM36.8715 70.0418C19.0533 70.0418 4.60894 55.5975 4.60894 37.7792C4.60894 19.961 19.0533 5.51666 36.8715 5.51666C54.6898 5.51666 69.1341 19.961 69.1341 37.7792C69.1341 55.5975 54.6898 70.0418 36.8715 70.0418Z" fill="url(#paint0_linear_1584_451)"/>
<defs>
<linearGradient id="paint0_linear_1584_451" x1="36.8715" y1="0.907715" x2="36.8715" y2="74.6508" gradientUnits="userSpaceOnUse">
<stop stop-color="#FF9534"/>
<stop offset="1" stop-color="#E328D1"/>
</linearGradient>
</defs>
</svg>
