<svg width="122" height="98" viewBox="0 0 122 98" fill="none" xmlns="http://www.w3.org/2000/svg">
<path d="M50.6543 50.6192L47.449 46.0147H43.9113V50.6192H40.065V34.0904H47.2591C48.7311 34.0904 50.0053 34.3344 51.0816 34.8224C52.1738 35.3104 53.0127 36.003 53.5984 36.9003C54.184 37.7976 54.4769 38.8601 54.4769 40.088C54.4769 41.3158 54.1761 42.3784 53.5746 43.2757C52.989 44.1572 52.1501 44.8341 51.0579 45.3063L54.7855 50.6192H50.6543ZM50.583 40.088C50.583 39.1592 50.2823 38.4509 49.6808 37.9629C49.0793 37.4591 48.2009 37.2073 47.0454 37.2073H43.9113V42.9687H47.0454C48.2009 42.9687 49.0793 42.7168 49.6808 42.2131C50.2823 41.7094 50.583 41.001 50.583 40.088Z" fill="black"/>
<path d="M57.2631 37.9156H60.967V50.6192H57.2631V37.9156ZM59.115 36.1447C58.4344 36.1447 57.8804 35.9479 57.453 35.5544C57.0257 35.1609 56.812 34.6729 56.812 34.0904C56.812 33.508 57.0257 33.02 57.453 32.6264C57.8804 32.2329 58.4344 32.0361 59.115 32.0361C59.7957 32.0361 60.3497 32.225 60.777 32.6028C61.2044 32.9806 61.4181 33.4529 61.4181 34.0196C61.4181 34.6335 61.2044 35.1451 60.777 35.5544C60.3497 35.9479 59.7957 36.1447 59.115 36.1447Z" fill="black"/>
<path d="M68.7019 50.8081C67.6414 50.8081 66.6046 50.6821 65.5916 50.4303C64.5786 50.1626 63.7713 49.8321 63.1698 49.4385L64.4045 46.7939C64.9743 47.156 65.6628 47.4551 66.4701 47.6912C67.2773 47.9116 68.0688 48.0218 68.8444 48.0218C70.4114 48.0218 71.1949 47.6361 71.1949 46.8648C71.1949 46.5027 70.9812 46.243 70.5538 46.0856C70.1265 45.9281 69.4696 45.7943 68.5832 45.6841C67.5385 45.5267 66.6759 45.3457 65.9952 45.1411C65.3146 44.9364 64.721 44.5744 64.2145 44.0549C63.7238 43.5354 63.4785 42.7956 63.4785 41.8353C63.4785 41.0325 63.708 40.3241 64.167 39.7102C64.6419 39.0805 65.3225 38.5925 66.2089 38.2462C67.1111 37.8999 68.1717 37.7267 69.3904 37.7267C70.2927 37.7267 71.187 37.8291 72.0734 38.0337C72.9756 38.2226 73.7195 38.4902 74.3052 38.8365L73.0706 41.4575C71.9467 40.8278 70.72 40.513 69.3904 40.513C68.599 40.513 68.0055 40.6232 67.6097 40.8436C67.214 41.064 67.0162 41.3473 67.0162 41.6936C67.0162 42.0872 67.2299 42.3627 67.6572 42.5201C68.0846 42.6775 68.7652 42.827 69.6991 42.9687C70.7438 43.1419 71.5985 43.3308 72.2633 43.5354C72.9281 43.7243 73.5059 44.0785 73.9965 44.598C74.4872 45.1174 74.7326 45.8416 74.7326 46.7703C74.7326 47.5574 74.4951 48.2579 74.0203 48.8718C73.5454 49.4858 72.849 49.9659 71.9309 50.3122C71.0287 50.6428 69.9524 50.8081 68.7019 50.8081Z" fill="black"/>
<path d="M84.7817 37.7267C86.3645 37.7267 87.6387 38.199 88.6043 39.1435C89.5856 40.088 90.0763 41.489 90.0763 43.3465V50.6192H86.3724V43.9132C86.3724 42.9057 86.1508 42.158 85.7076 41.67C85.2644 41.1663 84.6234 40.9144 83.7845 40.9144C82.8506 40.9144 82.1067 41.2056 81.5527 41.7881C80.9987 42.3548 80.7217 43.2048 80.7217 44.3382V50.6192H77.0178V33.0987H80.7217V39.2379C81.2124 38.7499 81.8059 38.38 82.5024 38.1282C83.1988 37.8605 83.9586 37.7267 84.7817 37.7267Z" fill="black"/>
<path d="M98.5858 37.7267C100.564 37.7267 102.084 38.199 103.144 39.1435C104.205 40.0722 104.735 41.4811 104.735 43.3701V50.6192H101.269V49.0371C100.572 50.2177 99.2744 50.8081 97.375 50.8081C96.3936 50.8081 95.5389 50.6428 94.8108 50.3122C94.0985 49.9816 93.5524 49.5251 93.1725 48.9427C92.7926 48.3602 92.6027 47.6991 92.6027 46.9592C92.6027 45.7786 93.0459 44.8498 93.9323 44.1729C94.8345 43.4961 96.2195 43.1576 98.0873 43.1576H101.031C101.031 42.3548 100.786 41.7409 100.295 41.3158C99.8046 40.8751 99.0686 40.6547 98.0873 40.6547C97.4066 40.6547 96.7339 40.7649 96.0691 40.9853C95.4202 41.1899 94.8662 41.4733 94.4071 41.8353L93.0775 39.2616C93.774 38.7736 94.605 38.3958 95.5705 38.1282C96.5519 37.8605 97.557 37.7267 98.5858 37.7267ZM98.3009 48.3287C98.9341 48.3287 99.496 48.1871 99.9867 47.9037C100.477 47.6046 100.826 47.1717 101.031 46.605V45.3063H98.4909C96.9713 45.3063 96.2116 45.8022 96.2116 46.7939C96.2116 47.2662 96.3936 47.644 96.7577 47.9273C97.1375 48.1949 97.652 48.3287 98.3009 48.3287Z" fill="black"/>
<path d="M115.638 37.7267C116.825 37.7267 117.901 38.0022 118.867 38.5532C119.848 39.0884 120.616 39.8519 121.17 40.8436C121.724 41.8196 122.001 42.9608 122.001 44.2674C122.001 45.574 121.724 46.7231 121.17 47.7148C120.616 48.6908 119.848 49.4543 118.867 50.0052C117.901 50.5404 116.825 50.8081 115.638 50.8081C113.881 50.8081 112.543 50.2571 111.625 49.1552V50.6192H108.087V33.0987H111.791V39.2616C112.725 38.2383 114.007 37.7267 115.638 37.7267ZM114.997 47.7857C115.946 47.7857 116.722 47.4708 117.323 46.8412C117.941 46.1958 118.249 45.3378 118.249 44.2674C118.249 43.197 117.941 42.3469 117.323 41.7173C116.722 41.0718 115.946 40.7491 114.997 40.7491C114.047 40.7491 113.263 41.0718 112.646 41.7173C112.045 42.3469 111.744 43.197 111.744 44.2674C111.744 45.3378 112.045 46.1958 112.646 46.8412C113.263 47.4708 114.047 47.7857 114.997 47.7857Z" fill="black"/>
<path d="M54.621 53.0572L49.2314 65.7607H45.4088L40.043 53.0572H43.8655L47.4032 61.6994L51.0596 53.0572H54.621Z" fill="black"/>
<path d="M68.297 59.4562C68.297 59.5034 68.2733 59.834 68.2258 60.4479H58.5625C58.7366 61.235 59.1481 61.8568 59.7971 62.3133C60.4461 62.7698 61.2533 62.9981 62.2189 62.9981C62.8837 62.9981 63.4693 62.9036 63.9758 62.7147C64.4982 62.5101 64.9809 62.1953 65.4241 61.7702L67.3948 63.8954C66.1918 65.2649 64.4349 65.9496 62.1239 65.9496C60.6835 65.9496 59.4093 65.6742 58.3013 65.1232C57.1933 64.5565 56.3386 63.7773 55.7371 62.7856C55.1356 61.7938 54.8349 60.6683 54.8349 59.409C54.8349 58.1654 55.1277 57.0477 55.7134 56.056C56.3148 55.0486 57.13 54.2693 58.1589 53.7184C59.2035 53.1517 60.3669 52.8683 61.649 52.8683C62.8995 52.8683 64.0312 53.1359 65.0443 53.6712C66.0573 54.2064 66.8487 54.9777 67.4185 55.9852C68.0042 56.9769 68.297 58.1339 68.297 59.4562ZM61.6728 55.6546C60.8339 55.6546 60.1295 55.8907 59.5597 56.363C58.9899 56.8352 58.6416 57.4806 58.515 58.2992H64.8068C64.6802 57.4964 64.332 56.8588 63.7621 56.3866C63.1923 55.8986 62.4959 55.6546 61.6728 55.6546Z" fill="black"/>
<path d="M74.3006 54.7337C74.7438 54.1198 75.3374 53.6554 76.0813 53.3406C76.8411 53.0257 77.7116 52.8683 78.693 52.8683V56.2685C78.2814 56.237 78.0044 56.2213 77.862 56.2213C76.8015 56.2213 75.9705 56.5204 75.369 57.1186C74.7675 57.701 74.4668 58.5826 74.4668 59.7632V65.7607H70.7629V53.0572H74.3006V54.7337Z" fill="black"/>
<path d="M97.2541 52.8683C98.8527 52.8683 100.119 53.3406 101.053 54.2851C102.003 55.2138 102.477 56.6148 102.477 58.4881V65.7607H98.7736V59.0548C98.7736 58.0473 98.5599 57.2996 98.1325 56.8116C97.721 56.3079 97.1274 56.056 96.3518 56.056C95.4813 56.056 94.7927 56.3394 94.2862 56.9061C93.7797 57.457 93.5264 58.2835 93.5264 59.3854V65.7607H89.8226V59.0548C89.8226 57.0556 89.0153 56.056 87.4008 56.056C86.5461 56.056 85.8655 56.3394 85.3589 56.9061C84.8524 57.457 84.5992 58.2835 84.5992 59.3854V65.7607H80.8953V53.0572H84.433V54.5212C84.9078 53.986 85.4856 53.5767 86.1662 53.2934C86.8627 53.01 87.6224 52.8683 88.4455 52.8683C89.3477 52.8683 90.1629 53.0494 90.891 53.4114C91.6191 53.7577 92.2048 54.2693 92.648 54.9462C93.1703 54.2851 93.8272 53.7735 94.6186 53.4114C95.4259 53.0494 96.3043 52.8683 97.2541 52.8683Z" fill="black"/>
<path d="M110.95 52.8683C112.928 52.8683 114.448 53.3406 115.508 54.2851C116.569 55.2138 117.099 56.6227 117.099 58.5117V65.7607H113.632V64.1787C112.936 65.3593 111.638 65.9496 109.739 65.9496C108.757 65.9496 107.903 65.7844 107.174 65.4538C106.462 65.1232 105.916 64.6667 105.536 64.0843C105.156 63.5018 104.966 62.8407 104.966 62.1008C104.966 60.9202 105.41 59.9914 106.296 59.3145C107.198 58.6376 108.583 58.2992 110.451 58.2992H113.395C113.395 57.4964 113.15 56.8825 112.659 56.4574C112.168 56.0167 111.432 55.7963 110.451 55.7963C109.77 55.7963 109.098 55.9065 108.433 56.1269C107.784 56.3315 107.23 56.6148 106.771 56.9769L105.441 54.4031C106.138 53.9152 106.969 53.5374 107.934 53.2697C108.916 53.0021 109.921 52.8683 110.95 52.8683ZM110.665 63.4703C111.298 63.4703 111.86 63.3287 112.35 63.0453C112.841 62.7462 113.189 62.3133 113.395 61.7466V60.4479H110.855C109.335 60.4479 108.575 60.9438 108.575 61.9355C108.575 62.4078 108.757 62.7856 109.121 63.0689C109.501 63.3365 110.016 63.4703 110.665 63.4703Z" fill="black"/>
<path d="M76.6624 27.9923C72.3591 22.365 66.4226 18.2043 59.6647 16.079C52.9069 13.9537 45.6575 13.9676 38.9079 16.1188C32.1582 18.27 26.2378 22.4535 21.956 28.0972C17.6743 33.741 15.2402 40.5695 14.9867 47.6491C14.7331 54.7287 16.6725 61.7139 20.5396 67.6494C24.4067 73.585 30.0127 78.1813 36.5912 80.8098C43.1696 83.4383 50.3994 83.9707 57.292 82.3343C64.1846 80.6978 70.4034 76.9724 75.0983 71.6674L72.7667 69.6039C68.497 74.4286 62.8412 77.8167 56.5728 79.3049C50.3043 80.7932 43.7292 80.309 37.7464 77.9185C31.7636 75.528 26.6652 71.3479 23.1483 65.9498C19.6314 60.5517 17.8676 54.1991 18.0982 47.7605C18.3288 41.322 20.5424 35.1118 24.4365 29.9791C28.3305 24.8464 33.7149 21.0417 39.8534 19.0853C45.9918 17.1289 52.5847 17.1163 58.7307 19.0491C64.8766 20.982 70.2755 24.766 74.1892 29.8837L76.6624 27.9923Z" fill="black"/>
</svg>
