<svg width="19" height="19" viewBox="0 0 19 19" fill="none" xmlns="http://www.w3.org/2000/svg">
<path d="M0.612549 12.7923C4.41028 13.9809 7.81415 13.3919 10.6028 10.592C13.3915 7.79212 13.9501 4.37546 12.8027 0.625977C15.8153 1.51877 19.3812 5.15996 18.9254 10.3384C18.5434 14.6968 15.2805 18.4066 10.504 18.9389C5.67224 19.4777 1.81523 16.3807 0.612549 12.7923Z" fill="#943400"/>
<path d="M3.94527 0C4.62499 1.96125 5.9212 3.24497 7.9485 3.91324C7.30039 4.21436 6.6984 4.41247 6.18993 4.79151C5.67615 5.17292 5.22081 5.62766 4.83839 6.14127C4.45111 6.66031 4.21136 7.24802 3.96239 7.948C3.65678 7.30613 3.4671 6.70257 3.09035 6.19542C2.69517 5.66714 2.2631 5.16527 1.70325 4.81529C1.17634 4.48247 0.598047 4.21437 0 3.89079C0.933955 3.56062 1.76648 3.11158 2.46069 2.41028C3.1549 1.70899 3.58038 0.90072 3.94527 0Z" fill="#943400"/>
</svg>
