<svg width="23" height="23" viewBox="0 0 23 23" fill="none" xmlns="http://www.w3.org/2000/svg">
<path d="M11.437 16.9415C8.61166 17.0488 5.99927 14.5064 5.99927 11.5202C5.99927 8.6017 8.52605 6.07062 11.4325 6.06836C14.3839 6.06836 16.8769 8.65252 16.8702 11.5168C16.8645 14.4025 14.3761 17.0465 11.437 16.9415Z" fill="white"/>
<path d="M3.40138 3.37256L7.58752 4.76855C7.59758 4.78888 7.60587 4.81004 7.61231 4.8318C7.61231 4.84422 7.61231 4.86455 7.61231 4.87133C6.72536 5.77488 5.83804 6.67542 4.95035 7.57295C4.88457 7.63116 4.81575 7.68583 4.74419 7.73672C4.24402 6.2933 3.78891 4.87584 3.31689 3.46404L3.40138 3.37256Z" fill="white"/>
<path d="M19.4959 3.43213C19.488 3.72127 18.3885 7.1175 18.1193 7.67996C17.8579 7.53087 15.6578 5.36348 15.2534 4.85636C15.4866 4.67226 19.1388 3.44455 19.4959 3.43213Z" fill="white"/>
<path d="M7.6516 18.1915C7.14016 18.4479 3.66823 19.5864 3.37646 19.5999C3.37646 19.3085 4.45341 15.9857 4.77109 15.3013C5.11806 15.5994 5.41659 15.9304 5.73201 16.2421C6.04744 16.5538 6.3899 16.896 6.71546 17.227C7.04103 17.5579 7.35645 17.8436 7.6516 18.1915Z" fill="white"/>
<path d="M18.1385 15.2983L19.559 19.5789C19.2346 19.6049 16.3619 18.6889 15.267 18.2304C15.2625 18.2179 15.2592 18.205 15.2568 18.192C15.2568 18.1784 15.2568 18.1592 15.2625 18.1524C16.1637 17.2414 17.0619 16.3314 17.9571 15.4226C18.0144 15.3767 18.075 15.3352 18.1385 15.2983Z" fill="white"/>
<path d="M13.4996 4.06599H9.43848C9.52634 3.69779 11.2184 0.308338 11.473 0L13.4996 4.06599Z" fill="white"/>
<path d="M3.96003 13.5612L0.00144848 11.5745C-0.000482826 11.5482 -0.000482826 11.5218 0.00144848 11.4955C0.0043904 11.4817 0.0124461 11.4696 0.0239785 11.4616C1.27366 10.8276 2.52372 10.1947 3.77416 9.56301C3.83744 9.53552 3.90211 9.5114 3.96792 9.49072C4.05691 9.83181 4.05691 13.1761 3.96003 13.5612Z" fill="white"/>
<path d="M18.8909 13.5646C18.8143 13.0653 18.8245 9.82724 18.9044 9.46582L22.9205 11.4774C22.6952 11.7292 22.4 11.7959 22.1544 11.9348C21.8863 12.085 21.6047 12.2149 21.3287 12.3527L20.5401 12.7457C20.2641 12.8835 19.9893 13.0236 19.7122 13.1602L18.8909 13.5646Z" fill="white"/>
<path d="M11.3794 22.9999C10.717 21.6739 10.0543 20.3449 9.39111 19.013C9.75047 18.9147 13.0872 18.9113 13.4714 19.013L11.4921 22.9988L11.3794 22.9999Z" fill="white"/>
</svg>
